<?xml version="1.0" standalone="no"?><!DOCTYPE svg PUBLIC "-//W3C//DTD SVG 1.1//EN" "http://www.w3.org/Graphics/SVG/1.1/DTD/svg11.dtd"><svg t="1714964327217" class="icon" viewBox="0 0 1024 1024" version="1.1" xmlns="http://www.w3.org/2000/svg" p-id="10544" xmlns:xlink="http://www.w3.org/1999/xlink" width="200" height="200"><path d="M511.50058 512.599293m-511.400697 0a511.400697 511.400697 0 1 0 1022.801395 0 511.400697 511.400697 0 1 0-1022.801395 0Z" fill="#eff6fe" p-id="10545"></path><path d="M875.873577 876.872407V832.024963c0-118.161528-237.12212-177.891532-355.68318-177.891532-118.56106 0-355.68318 59.730003-355.683181 177.891532v44.847444c197.46859 193.673038 513.698005 193.673038 711.366361 0zM519.990631 626.66562c124.554037 0 225.435815-100.981661 225.435815-225.435815S644.444785 175.79399 519.990631 175.79399c-124.554037 0-225.435815 100.881778-225.435815 225.435815s100.881778 225.435815 225.435815 225.435815z" fill="#6faae4" p-id="10546"></path></svg>